<svg width="26" height="26" viewBox="0 0 26 26" fill="none" xmlns="http://www.w3.org/2000/svg">
<path d="M25.9924 4.28296C25.9897 4.22933 25.9794 4.17787 25.9686 4.12479C25.9578 4.07117 25.948 4.01862 25.9296 3.96771C25.9236 3.95146 25.9242 3.93467 25.9177 3.91896C25.9041 3.887 25.8814 3.86154 25.8651 3.83121C25.8391 3.78192 25.8131 3.73425 25.7801 3.68983C25.7487 3.64758 25.7129 3.61129 25.6755 3.57446C25.6387 3.53762 25.6024 3.50188 25.5602 3.46992C25.5158 3.43688 25.4681 3.41088 25.4188 3.38488C25.3885 3.36863 25.3635 3.34533 25.331 3.33233C25.3153 3.32583 25.298 3.32583 25.2823 3.31988C25.2319 3.30146 25.1805 3.29171 25.1274 3.28088C25.0732 3.27004 25.0207 3.25921 24.966 3.2565C24.9492 3.2565 24.9335 3.25 24.9167 3.25H1.08333C1.066 3.25 1.04975 3.25704 1.03242 3.25758C0.978792 3.26029 0.927333 3.27058 0.87425 3.28142C0.820625 3.29225 0.768083 3.302 0.717167 3.32042C0.700917 3.32638 0.684125 3.32583 0.668417 3.33233C0.636458 3.34587 0.611 3.36863 0.580667 3.38488C0.531375 3.41088 0.483708 3.43688 0.439292 3.46992C0.397042 3.50133 0.36075 3.53708 0.323917 3.57446C0.287083 3.61129 0.251333 3.64758 0.219375 3.68983C0.186333 3.73425 0.160333 3.78192 0.134333 3.83121C0.118083 3.86154 0.0947917 3.88646 0.0817917 3.91896C0.0752917 3.93467 0.0752917 3.95146 0.069875 3.96771C0.0514583 4.01862 0.0417083 4.07117 0.030875 4.12479C0.0205833 4.17787 0.00975 4.22933 0.00704167 4.28296C0.0065 4.30029 0 4.316 0 4.33333V21.6667C0 21.7376 0.00758333 21.8086 0.021125 21.879C0.027625 21.911 0.0395417 21.9408 0.04875 21.9716C0.0595833 22.0085 0.06825 22.0453 0.082875 22.081C0.0980417 22.1173 0.118625 22.1504 0.137583 22.185C0.15275 22.2127 0.164667 22.2414 0.182542 22.2679C0.261625 22.3865 0.364 22.4889 0.482625 22.568C0.509167 22.5859 0.538417 22.5983 0.566583 22.6135C0.600708 22.6319 0.633208 22.6525 0.6695 22.6677C0.70525 22.6823 0.742625 22.691 0.779458 22.7018C0.810333 22.711 0.840125 22.7229 0.872083 22.7294C0.941417 22.7424 1.01238 22.75 1.08333 22.75H24.9167C24.9876 22.75 25.0586 22.7424 25.129 22.7289C25.161 22.7224 25.1908 22.7105 25.2216 22.7013C25.2585 22.6904 25.2958 22.6818 25.3316 22.6671C25.3673 22.652 25.4004 22.6319 25.4345 22.613C25.4627 22.5978 25.4914 22.5853 25.5185 22.5675C25.6371 22.4878 25.7395 22.386 25.8185 22.2674C25.8364 22.2408 25.8483 22.2121 25.8635 22.1845C25.8825 22.1504 25.903 22.1173 25.9182 22.0805C25.9328 22.0448 25.9415 22.0079 25.9523 21.9711C25.9615 21.9402 25.9735 21.9104 25.98 21.8785C25.9924 21.8086 26 21.7376 26 21.6667V4.33333C26 4.316 25.9935 4.30029 25.9924 4.28296ZM22.301 5.41667L14.0877 13.6305C13.488 14.2296 12.5125 14.2296 11.9123 13.6305L3.69904 5.41667H22.301ZM2.16667 6.94904L8.21817 13L2.16667 19.0515V6.94904ZM3.6985 20.5833L9.75 14.5318L10.3805 15.1623C10.471 15.2528 10.5647 15.3373 10.6616 15.4164C12.018 16.5225 13.982 16.5225 15.3384 15.4164C15.4353 15.3373 15.529 15.2528 15.6195 15.1623L16.25 14.5318L22.3015 20.5833H3.6985ZM23.8333 19.0515L17.7818 13L23.8333 6.94904V19.0515Z" fill="black"/>
</svg>
